<svg width="14" height="14" xmlns="http://www.w3.org/2000/svg"><g fill="none" fill-rule="evenodd"><path fill="transparent" d="M-70-407h748V803H-70z"/><path d="M8.061 7.036l4.72-4.55a.705.705 0 0 0 0-1.024.77.77 0 0 0-1.062 0L7 6.012l-4.719-4.55a.77.77 0 0 0-1.061 0 .705.705 0 0 0 0 1.023l4.719 4.55-4.72 4.551a.705.705 0 0 0 0 1.024.763.763 0 0 0 .531.211c.192 0 .384-.07.531-.212l4.72-4.55 4.718 4.55a.763.763 0 0 0 .53.212.76.76 0 0 0 .531-.212.705.705 0 0 0 0-1.023l-4.719-4.55z" fill="#666" fill-rule="nonzero" stroke="#666"/></g></svg>