<svg width="39" height="48" xmlns="http://www.w3.org/2000/svg"><g transform="translate(-7 -2)" fill="none" fill-rule="evenodd"><circle cx="26" cy="26" r="26"/><g fill="#333" fill-rule="nonzero"><path d="M36.6 7.6H35a.8.8 0 1 0 0 1.6h1.6a.8.8 0 1 0 0-1.6zm-23.2 12H11v11.2h9.6V19.6h-7.2zm3.2 1.6v2.4H15v-2.4h1.6zm2.4 0v8h-6.4v-8h.8v4h4.8v-4h.8zm4-3.2a.8.8 0 0 0-.8.8v12.8a.8.8 0 1 0 1.6 0V18.8a.8.8 0 0 0-.8-.8zm6.4 0a.8.8 0 0 0-.8.8v12.8a.8.8 0 1 0 1.6 0V18.8a.8.8 0 0 0-.8-.8zM19 38a.8.8 0 0 0 .8.8h12.8a.8.8 0 1 0 0-1.6H19.8a.8.8 0 0 0-.8.8z"/><path d="M43.664 2H8.736C7.779 2 7 2.78 7 3.736v43.92A2.346 2.346 0 0 0 9.344 50h33.712a2.347 2.347 0 0 0 2.344-2.344V3.736C45.4 2.779 44.62 2 43.664 2zM8.6 3.736c0-.075.06-.136.136-.136H25.4V34H8.6V3.736zm35.2 43.92c0 .41-.334.744-.744.744H9.344a.745.745 0 0 1-.744-.744V35.6h35.2v12.056zM27 34V3.6h16.664c.075 0 .136.06.136.136V34H27z"/></g></g></svg>