<svg xmlns="http://www.w3.org/2000/svg" width="522" height="512"><path fill="#d8d8d8" opacity=".4" d="M266 512h-9.846c-141.385 0-256-114.615-256-256s114.615-256 256-256H266c141.385 0 256 114.615 256 256S407.385 512 266 512z"/><path fill="#8c8b8b" d="M407.275 275.56l-98.563 88.707c-8.084 7.276-20.535 6.62-27.81-1.464a19.688 19.688 0 0 1-5.055-13.173V172.217c0-10.876 8.817-19.692 19.692-19.692 4.865 0 9.558 1.8 13.173 5.055l98.563 88.707c8.084 7.275 8.739 19.726 1.464 27.81-.462.513-.95 1.002-1.464 1.464z"/><path fill="#8c8b8b" d="M279.275 275.56l-98.563 88.707c-8.084 7.276-20.535 6.62-27.81-1.464a19.688 19.688 0 0 1-5.055-13.173V172.217c0-10.876 8.816-19.692 19.692-19.692 4.865 0 9.558 1.8 13.173 5.055l98.563 88.707c8.084 7.275 8.739 19.726 1.464 27.81-.462.513-.95 1.002-1.464 1.464z"/></svg>