<!-- Generated by IcoMoon.io -->
<svg version="1.1" xmlns="http://www.w3.org/2000/svg" width="522" height="512" viewBox="0 0 522 512">
<title></title>
<g id="icomoon-ignore">
</g>
<path fill="#d8d8d8" opacity="0.4" d="M266 512h-9.846c-141.385 0-256-114.615-256-256s114.615-256 256-256h9.846c141.385 0 256 114.615 256 256s-114.615 256-256 256z"></path>
<path fill="#8c8b8b" d="M407.275 275.56l-98.563 88.707c-8.084 7.276-20.535 6.62-27.81-1.464-3.255-3.616-5.055-8.308-5.055-13.173v-177.413c0-10.876 8.817-19.692 19.692-19.692 4.865 0 9.558 1.8 13.173 5.055l98.563 88.707c8.084 7.275 8.739 19.726 1.464 27.81-0.462 0.513-0.95 1.002-1.464 1.464z"></path>
<path fill="#8c8b8b" d="M279.275 275.56l-98.563 88.707c-8.084 7.276-20.535 6.62-27.81-1.464-3.255-3.616-5.055-8.308-5.055-13.173v-177.413c0-10.876 8.816-19.692 19.692-19.692 4.865 0 9.558 1.8 13.173 5.055l98.563 88.707c8.084 7.275 8.739 19.726 1.464 27.81-0.462 0.513-0.95 1.002-1.464 1.464z"></path>
</svg>
